/* XPM */
static char *certi-small[] = {
/* columns rows colors chars-per-pixel */
"64 19 201 2",
"   c #3D505C",
".  c #2A527C",
"X  c #364E68",
"o  c #3C546E",
"O  c #3C5A6E",
"+  c #335574",
"@  c #325C7F",
"#  c #3E5770",
"$  c #3F5D71",
"%  c #3B637B",
"&  c #3E687E",
"*  c #434344",
"=  c #4E4E4E",
"-  c #545454",
";  c #55585C",
":  c #595A5A",
">  c #425461",
",  c #4C5763",
"<  c #495965",
"1  c #4C5D6A",
"2  c #405B71",
"3  c #515D65",
"4  c #585F64",
"5  c #4E606C",
"6  c #426173",
"7  c #446479",
"8  c #4E647B",
"9  c #4C6D7E",
"0  c #586064",
"q  c #5E666A",
"w  c #546776",
"e  c #646464",
"r  c #6C6C6C",
"t  c #67717B",
"y  c #727272",
"u  c #757A7F",
"i  c #7C7C7C",
"p  c #375E81",
"a  c #3A5F81",
"s  c #2F6697",
"d  c #37689F",
"f  c #3E6A9C",
"g  c #227AB2",
"h  c #2B7BBC",
"j  c #366AA4",
"k  c #3F7EAF",
"l  c #0E75D4",
"z  c #146AC5",
"x  c #186ED1",
"c  c #1F75CE",
"v  c #1A78C6",
"b  c #1B71D2",
"n  c #0D75EC",
"m  c #0F7EE1",
"M  c #0077FE",
"N  c #007CFE",
"B  c #1176E7",
"V  c #2277CD",
"C  c #2478CA",
"Z  c #4B6988",
"A  c #4F728F",
"S  c #4F788E",
"D  c #46779B",
"F  c #497894",
"G  c #4B7B9E",
"H  c #526D84",
"J  c #557187",
"K  c #5C758E",
"L  c #577292",
"P  c #577A97",
"I  c #5A7A9B",
"U  c #467DA5",
"Y  c #437EB9",
"T  c #697889",
"R  c #637F95",
"E  c #2B80BB",
"W  c #3780A8",
"Q  c #3883AB",
"!  c #3C84BF",
"~  c #1D81C0",
"^  c #1B84D2",
"/  c #1492DB",
"(  c #0D82E0",
")  c #0C83EB",
"_  c #0083FE",
"`  c #078BF7",
"'  c #008BFE",
"]  c #0C85F7",
"[  c #0B8CF1",
"{  c #0E89FD",
"}  c #0D95EA",
"|  c #0093FE",
" . c #009BFE",
".. c #0B9FF0",
"X. c #148FEB",
"o. c #1084F8",
"O. c #1884FE",
"+. c #188AFE",
"@. c #1296E5",
"#. c #1197E8",
"$. c #1796F9",
"%. c #1894FE",
"&. c #189CFE",
"*. c #00A3FE",
"=. c #09A1F4",
"-. c #0CA9FF",
";. c #13ACFF",
":. c #18A2FE",
">. c #18ABFE",
",. c #2285C5",
"<. c #2587C9",
"1. c #208AC4",
"2. c #2488C9",
"3. c #2388D1",
"4. c #2C93CB",
"5. c #2992D1",
"6. c #3485C4",
"7. c #3489C8",
"8. c #3D8ECD",
"9. c #3C8FD5",
"0. c #329CD6",
"q. c #2F88EE",
"w. c #2E8EFC",
"e. c #398DED",
"r. c #3495FE",
"t. c #3895FE",
"y. c #20A0ED",
"u. c #29B1FE",
"i. c #4981A9",
"p. c #4683B2",
"a. c #5A8FB6",
"s. c #68849A",
"d. c #6D8FAD",
"f. c #6693B4",
"g. c #7C95A7",
"h. c #7D9DBC",
"j. c #7AA3BA",
"k. c #529FF7",
"l. c #49B3ED",
"z. c #4ABDFD",
"x. c #59A6E9",
"c. c #53ABFC",
"v. c #52B0F7",
"b. c #56BFF9",
"n. c #6398D5",
"m. c #7EA6C4",
"M. c #6EABE7",
"N. c #67B3FD",
"B. c #76B6F2",
"V. c #7BBDFB",
"C. c #4DC0FE",
"Z. c #59C3FD",
"A. c #64C0FA",
"S. c #6FCCFF",
"D. c #818181",
"F. c #8D8D8D",
"G. c #828C94",
"H. c #8D9397",
"J. c #949494",
"K. c #96999A",
"L. c #9C9C9C",
"P. c #9AABBA",
"I. c #A2A2A2",
"U. c #ACACAC",
"Y. c #A6ACB3",
"T. c #B4B4B4",
"R. c #BDBDBD",
"E. c #85A3C4",
"W. c #95AEC6",
"Q. c #99B3C3",
"!. c #97BBDD",
"~. c #A2BFD1",
"^. c #90C9F5",
"/. c #A5C5E4",
"(. c #ADCCED",
"). c #AECEF3",
"_. c #ABD5EF",
"`. c #A5DFFE",
"'. c #AFD4FB",
"]. c #B8D5EF",
"[. c #B4D5FA",
"{. c #BDD6F2",
"}. c #BFDAF3",
"|. c #AAE1FF",
" X c #C4C4C4",
".X c #CBCBCB",
"XX c #C3CAD1",
"oX c #D2D2D2",
"OX c #DBDBDB",
"+X c #C5D9E4",
"@X c #CFD8E1",
"#X c #CBECFD",
"$X c #D2E6FB",
"%X c #DBF2FE",
"&X c #E4E4E4",
"*X c #E5E9ED",
"=X c #EBEBEB",
"-X c #E0E9F2",
";X c #E2F5FF",
":X c #F3F3F3",
">X c #FEFEFE",
/* pixels */
">X>X>X>X>X>X>X>X>X>X>X>X>X>X>X>X>X>X>X>X>X>X>X>X>X>X>X>X>X>X>X>X>X>X>X>X>X>X>X>X>X>X>X>X>X>X>X>X>X>X>X>X>X>X>X>X>X>X>X>X>X>X>X>X",
">X>X>X>X>X>X>X>X>X>X>X>X>X>X>X>X>X>X>X>X>X>X>X>X>X>X>X>X>X>X>X>X>X>X>X>X>X>X>X>X>X>X>X>X>X>X>X>X>X>X>X>X>X>X>X>X>X>X>X>X>X>X>X>X",
">X>X>X>X>X>X>X>X>X>X>X>X>X>X>X>X>X>X>X>X>X>X>X>X>X>X>X>X>X>X>X>X>X>X>X>X>X>X>X>X>X>X>X>X>X>X>X>X>X>X>X>X>X>X>X>X>X>X>X>X>X>X>X>X",
">X>X>X>X>X>X>X%XS.C.>.>.>.>.>.>.>.>._.A.>.:.&.:.&.:.&.&.&.$.v.^.&.%.%.%.+.%.%.%.c.+X:XN.+.+.+.+.+.O.O.O.O.n k.{.O.O.w.*X:X>X>X>X",
">X>X>X>X>X>X|.-.*.*.*.*.*.*.*.*. .y.Q. . . . . .| | | | | | m.$.| ' ' ' ' ' _ _ _ { !._ _ N N N N N M M M M E.e.M M n. XoX:X>X>X",
">X>X>X>X>X;X;.*.*.*.*.*.*.*.*. .*.F 4. . . .|  .|  . .| | ^ k ' ' ' ' ' ' _ ' _ _ _ o._ _ _ N _ N N N M M c L M M n u F. X&X>X>X",
">X>X>X>X>XZ.*.*.4.9 6 6 6 6 6 6 6 6  . .} 6 O O O 6 O 2 2 , w R s.J 2 2 2 # s _ _ _ @ H K Z N N N . X o # , x M M j : D. X=X>X>X",
">X>X>X>X#X*.*.=.q : e i i i D.i D.5.*. ./ g g h E E E E G U 7.8.8.6.h h h h ) ' _ l * e i Y N N z * - r i I M M n ; e L.OX>X>X>X",
">X>X>X>XC.-.*.Q : y I. X.X.X.X.X~. .*.*. . . .|  .| | | f.| ' | ' ' ' ' ' ' _ _ _ + - D.Y.o.N N # - D.U. Xq.M M d - i  X=X>X>X>X",
">X>X>X#X*.*...0 e L.oX=X:X:X:X=Xz. . . . . . . . . .| 3.7.| | ' | ' ' ' _ ' ' m @ = r U.M._ _ c - r U.OX).M M n : e I.OX:X>X>X>X",
">X>X>XC.*.*.Q - i R.=X:X>X>X>X#X .*.@.1   > < 5 1 1 5 4 D X.| | ' ( @ > 1 1 3 : : y K.XXo.N N 8 : F..X:Xt.M M f : D. X=X>X>X>X>X",
">X>X%X*.-.*./ 1.0.l.C.Z.Z.Z.Z.u.*.*.@.~ ~ ,.,.2.<.<.i.i F.K.a.[ ' | ' v H y D.D.J.U..XB._ _ V : y U.&X[.M M B 4 e I.OX:X>X>X>X>X",
">X>X`.*.*.*.*.*.*.*.*.*.*.*.*.*.*.*. . . . . . . .| H.Y.R..XT.H.p.[ ' ' ` 9.P. XoX&X*X{ _ N w : F..X:Xr.N M f : i  X=X>X>X>X>X>X",
">X>X#X*.=...*.*.*.*.*.*.*.*.*.*. .*. .*. . . .|  .<.u L.oX&X&XoXU.G.! ` ' ' ' x.@X:XV._ _ C : y T.&X'.M N B : e I.OX>X>X>X>X>X>X",
">X>X>X+Xj.i.% % & & & & & & % 7 % % % $ % % % Z & 3 r L.OX:X>X:X&X.XU.G.P Z I d.W.OX]./.h.t e J..X:X$X(.E.T r D. X:X>X>X>X>X>X>X",
">X>X>X=X XJ.i i i i i i i i i i i i u i i i i i i D.J. X&X>X>X>X>X:X&X.XU.F.F.K.U..X&XOXT.J.K.R.&X>X>X&XR.J.J.T.&X:X>X>X>X>X>X>X",
">X>X>X:X=XoX.X X X X.X X X X X X X X X X X X X.X X.XoX&X:X>X>X>X>X>X>X=X&XoX.X.XoX&X=X&XOX.XoX&X>X>X>X:XOX.XoX&X:X>X>X>X>X>X>X>X",
">X>X>X>X>X:X:X:X:X:X:X:X:X:X:X:X:X:X:X:X:X:X:X:X:X:X:X>X>X>X>X>X>X>X>X>X>X>X:X:X:X:X>X>X>X:X>X>X>X>X>X>X>X:X:X>X>X>X>X>X>X>X>X>X",
">X>X>X>X>X>X>X>X>X>X>X>X>X>X>X>X>X>X>X>X>X>X>X>X>X>X>X>X>X>X>X>X>X>X>X>X>X>X>X>X>X>X>X>X>X>X>X>X>X>X>X>X>X>X>X>X>X>X>X>X>X>X>X>X"
};
